<?xml version="1.0" encoding="UTF-8" standalone="no"?>
<!-- Created with Inkscape (http://www.inkscape.org/) -->

<svg
   xmlns:dc="http://purl.org/dc/elements/1.1/"
   xmlns:cc="http://creativecommons.org/ns#"
   xmlns:rdf="http://www.w3.org/1999/02/22-rdf-syntax-ns#"
   xmlns:svg="http://www.w3.org/2000/svg"
   xmlns="http://www.w3.org/2000/svg"
   xmlns:sodipodi="http://sodipodi.sourceforge.net/DTD/sodipodi-0.dtd"
   xmlns:inkscape="http://www.inkscape.org/namespaces/inkscape"
   id="svg2"
   version="1.1"
   inkscape:version="0.48.3.1 r9886"
   width="181.05"
   height="61.950001"
   xml:space="preserve"
   sodipodi:docname="10-05-01.pdf"><metadata
     id="metadata8"><rdf:RDF><cc:Work
         rdf:about=""><dc:format>image/svg+xml</dc:format><dc:type
           rdf:resource="http://purl.org/dc/dcmitype/StillImage" /><dc:title></dc:title></cc:Work></rdf:RDF></metadata><defs
     id="defs6"><clipPath
       clipPathUnits="userSpaceOnUse"
       id="clipPath50"><path
         d="m 46.2,667.44 144.84,0 0,-49.56 -144.84,0 0,49.56 z"
         clip-rule="evenodd"
         id="path52"
         inkscape:connector-curvature="0" /></clipPath><clipPath
       clipPathUnits="userSpaceOnUse"
       id="clipPath392"><path
         d="m 46.2,667.44 144.84,0 0,-49.56 -144.84,0 0,49.56 z"
         clip-rule="evenodd"
         id="path394"
         inkscape:connector-curvature="0" /></clipPath></defs><sodipodi:namedview
     pagecolor="#ffffff"
     bordercolor="#666666"
     borderopacity="1"
     objecttolerance="10"
     gridtolerance="10"
     guidetolerance="10"
     inkscape:pageopacity="0"
     inkscape:pageshadow="2"
     inkscape:window-width="991"
     inkscape:window-height="819"
     id="namedview4"
     showgrid="false"
     fit-margin-top="0"
     fit-margin-left="0"
     fit-margin-right="0"
     fit-margin-bottom="0"
     inkscape:zoom="3.8141414"
     inkscape:cx="36.413466"
     inkscape:cy="44.99046"
     inkscape:window-x="0"
     inkscape:window-y="28"
     inkscape:window-maximized="0"
     inkscape:current-layer="g10" /><g
     id="g10"
     inkscape:groupmode="layer"
     inkscape:label="10-05-01"
     transform="matrix(1.25,0,0,-1.25,-57.75,834.3)"><path
       d="m 46.2,617.88 144.84,0 0,49.56 -144.84,0 0,-49.56 z"
       style="fill:#ffffff;fill-opacity:1;fill-rule:nonzero;stroke:none"
       id="path44"
       inkscape:connector-curvature="0" /><g
       id="g46"><g
         id="g48"
         clip-path="url(#clipPath50)"><path
           d="m 51.546,619.935 c 0,-1.12 -1.216,-2.01 -2.682,-2.01 -1.465,0 -2.681,0.89 -2.681,2.01 0,1.119 1.216,2.009 2.681,2.009 1.466,0 2.682,-0.89 2.682,-2.009 z m -4.118,0 c 0,-0.588 0.645,-1.136 1.436,-1.136 0.792,0 1.437,0.548 1.437,1.136 0,0.587 -0.645,1.136 -1.437,1.136 -0.791,0 -1.436,-0.549 -1.436,-1.136"
           style="fill:#00a9a1;fill-opacity:1;fill-rule:nonzero;stroke:none"
           id="path54"
           inkscape:connector-curvature="0" /></g></g><path
       d="m 55.108,621.854 c 0.997,0 1.971,-0.224 1.971,-1.007 0,-0.37 -0.263,-0.677 -0.659,-0.806 l 0,-0.011 c 0.454,-0.14 0.806,-0.487 0.806,-0.946 0,-0.61 -0.542,-1.069 -1.824,-1.069 l -1.715,0 0,3.839 1.421,0 z m -0.175,-1.528 0.315,0 c 0.395,0 0.586,0.157 0.586,0.398 0,0.291 -0.337,0.375 -0.63,0.375 l -0.271,0 0,-0.773 z m 0,-1.555 0.329,0 c 0.381,0 0.718,0.078 0.718,0.391 0,0.358 -0.351,0.409 -0.732,0.409 l -0.315,0 0,-0.8"
       style="fill:#00a9a1;fill-opacity:1;fill-rule:nonzero;stroke:none"
       id="path56"
       inkscape:connector-curvature="0" /><path
       d="m 60.231,621.854 1.246,0.09 0,-2.58 c 0,-0.868 -0.615,-1.439 -1.78,-1.439 -0.154,0 -0.315,0 -0.462,0.04 l -0.3,0.951 c 0.168,-0.05 0.359,-0.067 0.542,-0.067 0.623,0 0.754,0.246 0.754,0.705 l 0,2.3"
       style="fill:#00a9a1;fill-opacity:1;fill-rule:nonzero;stroke:none"
       id="path58"
       inkscape:connector-curvature="0" /><path
       d="m 63.867,618.015 0,3.839 2.842,0 0.22,-0.811 -1.817,0 0,-0.666 1.297,0 0,-0.812 -1.297,0 0,-0.738 1.971,0 -0.308,-0.812 -2.908,0"
       style="fill:#00a9a1;fill-opacity:1;fill-rule:nonzero;stroke:none"
       id="path60"
       inkscape:connector-curvature="0" /><path
       d="m 72.536,620.797 c -0.271,0.145 -0.579,0.274 -0.916,0.274 -0.85,0 -1.45,-0.465 -1.45,-1.125 0,-0.666 0.564,-1.147 1.45,-1.147 0.337,0 0.682,0.139 0.946,0.285 l -0.154,-1.019 c -0.205,-0.084 -0.652,-0.14 -0.88,-0.14 -1.531,0 -2.608,0.806 -2.608,1.998 0,1.148 1.077,2.021 2.601,2.021 0.279,0 0.572,-0.034 0.821,-0.123 l 0.19,-1.024"
       style="fill:#00a9a1;fill-opacity:1;fill-rule:nonzero;stroke:none"
       id="path62"
       inkscape:connector-curvature="0" /><path
       d="m 74.362,620.981 0.315,0.873 3.429,0 0,-0.873 -1.209,0 0,-2.921 -1.245,-0.09 0,3.011 -1.29,0"
       style="fill:#00a9a1;fill-opacity:1;fill-rule:nonzero;stroke:none"
       id="path64"
       inkscape:connector-curvature="0" /><path
       d="m 154.065,620.718 c -0.322,0.223 -0.747,0.352 -1.179,0.352 -0.872,0 -1.502,-0.476 -1.502,-1.136 0,-0.716 0.725,-1.136 1.597,-1.136 0.19,0 0.571,0.028 0.718,0.14 l 0,0.554 -1.304,0 0.359,0.811 2.191,0 0,-1.986 c -0.506,-0.224 -1.363,-0.392 -2.125,-0.392 -1.466,0 -2.682,0.89 -2.682,2.009 0,1.119 1.216,2.009 2.682,2.009 0.74,0 1.451,-0.19 1.978,-0.537 l -0.733,-0.688"
       style="fill:#00a9a1;fill-opacity:1;fill-rule:nonzero;stroke:none"
       id="path66"
       inkscape:connector-curvature="0" /><path
       d="m 157.438,621.854 1.414,0 c 1.172,0 2.03,-0.314 2.03,-1.187 0,-0.397 -0.301,-0.828 -0.814,-0.974 l 1.356,-1.46 -1.261,-0.308 -1.465,1.813 -0.015,0 0,-1.679 -1.245,-0.089 0,3.884 z m 1.245,-1.886 c 0.535,-0.028 0.953,0.106 0.953,0.559 0,0.459 -0.44,0.532 -0.953,0.515 l 0,-1.074"
       style="fill:#00a9a1;fill-opacity:1;fill-rule:nonzero;stroke:none"
       id="path68"
       inkscape:connector-curvature="0" /><path
       d="m 168.679,619.934 c 0,-1.119 -1.216,-2.009 -2.682,-2.009 -1.465,0 -2.681,0.89 -2.681,2.009 0,1.119 1.216,2.009 2.681,2.009 1.466,0 2.682,-0.89 2.682,-2.009 z m -4.118,0 c 0,-0.588 0.645,-1.136 1.436,-1.136 0.792,0 1.436,0.548 1.436,1.136 0,0.588 -0.644,1.136 -1.436,1.136 -0.791,0 -1.436,-0.548 -1.436,-1.136"
       style="fill:#00a9a1;fill-opacity:1;fill-rule:nonzero;stroke:none"
       id="path70"
       inkscape:connector-curvature="0" /><path
       d="m 175.282,619.346 c 0,-0.895 -0.916,-1.421 -2.176,-1.421 -1.172,0 -1.993,0.42 -1.993,1.354 l 0,2.575 1.246,0.089 0,-2.395 c 0,-0.409 0.153,-0.75 0.776,-0.75 0.806,0 0.901,0.431 0.901,0.957 l 0,2.099 1.246,0.089 0,-2.597"
       style="fill:#00a9a1;fill-opacity:1;fill-rule:nonzero;stroke:none"
       id="path72"
       inkscape:connector-curvature="0" /><path
       d="m 177.915,621.854 1.517,0 c 1.245,0 2.044,-0.286 2.044,-1.232 0,-0.755 -0.835,-1.22 -1.876,-1.22 l -0.439,0 0,-1.343 -1.246,-0.089 0,3.884 z m 1.246,-1.64 0.358,0 c 0.462,0 0.711,0.151 0.711,0.414 0,0.263 -0.249,0.414 -0.711,0.414 l -0.358,0 0,-0.828"
       style="fill:#00a9a1;fill-opacity:1;fill-rule:nonzero;stroke:none"
       id="path74"
       inkscape:connector-curvature="0" /><path
       d="m 86.736,621.937 0.015,0 1.333,-3.884 -1.253,-0.134 -0.432,1.847 -0.015,0 -1.319,-1.847 -0.014,0 -1.202,1.841 -0.015,0 -0.432,-1.841 -1.275,0.134 1.378,3.884 0.014,0 1.583,-2.35 1.634,2.35"
       style="fill:#00a9a1;fill-opacity:1;fill-rule:nonzero;stroke:none"
       id="path76"
       inkscape:connector-curvature="0" /><path
       d="m 92.115,621.937 2.711,-3.822 -1.267,-0.196 -0.513,0.823 -1.913,0 -0.505,-0.823 -1.209,0.196 2.682,3.822 0.014,0 z m -0.681,-2.485 1.333,0 -0.666,0.941 -0.667,-0.941"
       style="fill:#00a9a1;fill-opacity:1;fill-rule:nonzero;stroke:none"
       id="path78"
       inkscape:connector-curvature="0" /><path
       d="m 101.188,617.919 -3.289,2.194 0,-2.06 -1.246,-0.089 0,3.973 0.015,0 3.289,-2.149 0,2.06 1.246,0.089 0,-4.018 -0.015,0"
       style="fill:#00a9a1;fill-opacity:1;fill-rule:nonzero;stroke:none"
       id="path80"
       inkscape:connector-curvature="0" /><path
       d="m 105.74,621.937 2.711,-3.822 -1.267,-0.196 -0.513,0.823 -1.912,0 -0.506,-0.823 -1.209,0.196 2.682,3.822 0.014,0 z m -0.681,-2.485 1.334,0 -0.667,0.941 -0.667,-0.941"
       style="fill:#00a9a1;fill-opacity:1;fill-rule:nonzero;stroke:none"
       id="path82"
       inkscape:connector-curvature="0" /><path
       d="m 114.008,620.712 c -0.323,0.223 -0.748,0.352 -1.18,0.352 -0.872,0 -1.502,-0.475 -1.502,-1.136 0,-0.716 0.725,-1.136 1.597,-1.136 0.191,0 0.572,0.028 0.718,0.14 l 0,0.554 -1.304,0 0.359,0.811 2.191,0 0,-1.986 c -0.506,-0.224 -1.363,-0.392 -2.125,-0.392 -1.466,0 -2.682,0.89 -2.682,2.009 0,1.119 1.216,2.009 2.682,2.009 0.74,0 1.451,-0.19 1.978,-0.537 l -0.732,-0.688"
       style="fill:#00a9a1;fill-opacity:1;fill-rule:nonzero;stroke:none"
       id="path84"
       inkscape:connector-curvature="0" /><path
       d="m 117.314,618.008 0,3.84 2.843,0 0.22,-0.812 -1.817,0 0,-0.666 1.297,0 0,-0.811 -1.297,0 0,-0.739 1.971,0 -0.308,-0.812 -2.909,0"
       style="fill:#00a9a1;fill-opacity:1;fill-rule:nonzero;stroke:none"
       id="path86"
       inkscape:connector-curvature="0" /><path
       d="m 126.797,621.937 0.015,0 1.333,-3.884 -1.253,-0.134 -0.432,1.847 -0.015,0 -1.319,-1.847 -0.014,0 -1.202,1.841 -0.015,0 -0.432,-1.841 -1.275,0.134 1.378,3.884 0.014,0 1.583,-2.35 1.634,2.35"
       style="fill:#00a9a1;fill-opacity:1;fill-rule:nonzero;stroke:none"
       id="path88"
       inkscape:connector-curvature="0" /><path
       d="m 130.125,618.008 0,3.84 2.843,0 0.22,-0.812 -1.818,0 0,-0.666 1.297,0 0,-0.811 -1.297,0 0,-0.739 1.972,0 -0.308,-0.812 -2.909,0"
       style="fill:#00a9a1;fill-opacity:1;fill-rule:nonzero;stroke:none"
       id="path90"
       inkscape:connector-curvature="0" /><path
       d="m 140.026,617.919 -3.29,2.194 0,-2.06 -1.246,-0.089 0,3.973 0.015,0 3.29,-2.149 0,2.06 1.245,0.089 0,-4.018 -0.014,0"
       style="fill:#00a9a1;fill-opacity:1;fill-rule:nonzero;stroke:none"
       id="path92"
       inkscape:connector-curvature="0" /><path
       d="m 142.057,620.975 0.315,0.873 3.429,0 0,-0.873 -1.209,0 0,-2.922 -1.245,-0.089 0,3.011 -1.29,0"
       style="fill:#00a9a1;fill-opacity:1;fill-rule:nonzero;stroke:none"
       id="path94"
       inkscape:connector-curvature="0" /><path
       d="m 80.392,641.858 4.978,0.878 0.005,2.162 -3.886,-0.685 c -0.276,-0.802 -0.641,-1.593 -1.097,-2.355"
       style="fill:#00a9a1;fill-opacity:1;fill-rule:nonzero;stroke:none"
       id="path96"
       inkscape:connector-curvature="0" /><path
       d="m 80.545,653.69 4.853,0.856 0.005,1.996 -6.304,-1.112 c 0.558,-0.565 1.041,-1.149 1.446,-1.74"
       style="fill:#00a9a1;fill-opacity:1;fill-rule:nonzero;stroke:none"
       id="path98"
       inkscape:connector-curvature="0" /><path
       d="m 81.574,644.477 3.802,0.671 0.004,1.996 -3.333,-0.588 c -0.096,-0.692 -0.253,-1.389 -0.473,-2.079"
       style="fill:#00a9a1;fill-opacity:1;fill-rule:nonzero;stroke:none"
       id="path100"
       inkscape:connector-curvature="0" /><path
       d="m 76.381,657.611 9.028,1.592 0.005,1.996 -6.347,-1.119 -2.906,-0.97 0.07,0.484 -2.733,-0.496 c 1.043,-0.424 2.007,-0.927 2.883,-1.487"
       style="fill:#00a9a1;fill-opacity:1;fill-rule:nonzero;stroke:none"
       id="path102"
       inkscape:connector-curvature="0" /><path
       d="m 81.821,651.005 c 0.14,-0.543 0.236,-1.111 0.291,-1.694 l 3.275,0.577 0.005,1.996 -3.64,-0.642 c 0.024,-0.079 0.049,-0.158 0.069,-0.237"
       style="fill:#00a9a1;fill-opacity:1;fill-rule:nonzero;stroke:none"
       id="path104"
       inkscape:connector-curvature="0" /><path
       d="m 82.08,646.811 3.301,0.582 0.005,2.246 -3.253,-0.574 c 0.053,-0.734 0.037,-1.49 -0.053,-2.254"
       style="fill:#00a9a1;fill-opacity:1;fill-rule:nonzero;stroke:none"
       id="path106"
       inkscape:connector-curvature="0" /><path
       d="m 78.315,639.247 7.049,1.243 0.005,1.996 -5.151,-0.908 c -0.522,-0.821 -1.153,-1.606 -1.903,-2.331"
       style="fill:#00a9a1;fill-opacity:1;fill-rule:nonzero;stroke:none"
       id="path108"
       inkscape:connector-curvature="0" /><path
       d="m 78.883,655.641 6.52,1.15 0.006,2.163 -8.728,-1.539 c 0.82,-0.549 1.556,-1.147 2.202,-1.774"
       style="fill:#00a9a1;fill-opacity:1;fill-rule:nonzero;stroke:none"
       id="path110"
       inkscape:connector-curvature="0" /><path
       d="m 74.519,636.642 10.841,1.935 0.004,1.664 -7.379,-1.302 c -0.97,-0.876 -2.119,-1.657 -3.466,-2.297"
       style="fill:#00a9a1;fill-opacity:1;fill-rule:nonzero;stroke:none"
       id="path112"
       inkscape:connector-curvature="0" /><path
       d="m 85.42,663.944 -19.124,-3.456 c 2.484,-0.005 4.757,-0.466 6.759,-1.219 l 3.222,0.568 0.12,0.437 2.036,-0.056 6.981,1.231 0.006,2.495"
       style="fill:#00a9a1;fill-opacity:1;fill-rule:nonzero;stroke:none"
       id="path114"
       inkscape:connector-curvature="0" /><path
       d="m 81.678,651.479 3.714,0.655 0.005,2.162 -4.7,-0.829 c 0.432,-0.665 0.761,-1.335 0.981,-1.988"
       style="fill:#00a9a1;fill-opacity:1;fill-rule:nonzero;stroke:none"
       id="path116"
       inkscape:connector-curvature="0" /><path
       d="m 72.988,647.453 -12.759,-2.252 c 0.377,-0.729 0.944,-1.398 1.568,-1.967 l 10.566,1.864 c 0.4,0.749 0.607,1.558 0.625,2.355"
       style="fill:#00a9a1;fill-opacity:1;fill-rule:nonzero;stroke:none"
       id="path118"
       inkscape:connector-curvature="0" /><path
       d="m 72.816,648.856 c -0.075,0.259 -0.178,0.511 -0.294,0.759 l -12.917,-2.278 c 0.021,-0.309 0.047,-0.614 0.108,-0.891 0.076,-0.341 0.217,-0.667 0.378,-1.001 l 12.9,2.257 c -0.011,0.393 -0.067,0.78 -0.175,1.154"
       style="fill:#00a9a1;fill-opacity:1;fill-rule:nonzero;stroke:none"
       id="path120"
       inkscape:connector-curvature="0" /><path
       d="m 66.585,653.223 -3.397,-0.599 c -1.328,-0.569 -2.279,-1.488 -2.867,-2.5 l 10.243,1.806 c -1.064,0.759 -2.425,1.242 -3.979,1.293"
       style="fill:#00a9a1;fill-opacity:1;fill-rule:nonzero;stroke:none"
       id="path122"
       inkscape:connector-curvature="0" /><path
       d="m 70.828,651.727 -10.664,-1.881 c -0.383,-0.751 -0.565,-1.537 -0.561,-2.26 l 12.811,2.259 c -0.373,0.708 -0.914,1.349 -1.586,1.882"
       style="fill:#00a9a1;fill-opacity:1;fill-rule:nonzero;stroke:none"
       id="path124"
       inkscape:connector-curvature="0" /><path
       d="m 72.196,644.819 -10.16,-1.792 c 0.954,-0.78 2.199,-1.294 3.803,-1.324 l 3.297,0.581 c 1.387,0.556 2.414,1.474 3.06,2.535"
       style="fill:#00a9a1;fill-opacity:1;fill-rule:nonzero;stroke:none"
       id="path126"
       inkscape:connector-curvature="0" /><path
       d="m 55.363,637.195 -8.215,-1.449 0.002,-1.994 11.274,1.988 c -1.129,0.39 -2.149,0.882 -3.061,1.455"
       style="fill:#00a9a1;fill-opacity:1;fill-rule:nonzero;stroke:none"
       id="path128"
       inkscape:connector-curvature="0" /><path
       d="m 50.115,643.918 c -0.165,0.544 -0.276,1.108 -0.34,1.686 l -2.634,-0.465 0.002,-1.995 3.049,0.538 c -0.026,0.079 -0.053,0.157 -0.077,0.236"
       style="fill:#00a9a1;fill-opacity:1;fill-rule:nonzero;stroke:none"
       id="path130"
       inkscape:connector-curvature="0" /><path
       d="m 51.507,652.975 -4.371,-0.77 0.002,-2.162 3.26,0.575 c 0.283,0.802 0.652,1.593 1.109,2.357"
       style="fill:#00a9a1;fill-opacity:1;fill-rule:nonzero;stroke:none"
       id="path132"
       inkscape:connector-curvature="0" /><path
       d="m 53.517,655.575 -6.382,-1.126 0.001,-1.995 4.546,0.802 c 0.513,0.812 1.125,1.592 1.835,2.319"
       style="fill:#00a9a1;fill-opacity:1;fill-rule:nonzero;stroke:none"
       id="path134"
       inkscape:connector-curvature="0" /><path
       d="m 59.013,659.172 -11.881,-2.146 0.002,-2.328 6.683,1.179 c 1.389,1.34 3.123,2.483 5.196,3.295"
       style="fill:#00a9a1;fill-opacity:1;fill-rule:nonzero;stroke:none"
       id="path136"
       inkscape:connector-curvature="0" /><path
       d="m 50.305,650.353 -3.167,-0.559 0.002,-1.995 2.68,0.473 c 0.097,0.693 0.258,1.39 0.485,2.081"
       style="fill:#00a9a1;fill-opacity:1;fill-rule:nonzero;stroke:none"
       id="path138"
       inkscape:connector-curvature="0" /><path
       d="m 51.377,641.148 -4.232,-0.747 0.002,-1.995 5.568,0.982 c -0.51,0.556 -0.955,1.146 -1.338,1.76"
       style="fill:#00a9a1;fill-opacity:1;fill-rule:nonzero;stroke:none"
       id="path140"
       inkscape:connector-curvature="0" /><path
       d="m 52.918,639.175 -5.771,-1.018 0.001,-2.161 7.909,1.394 c -0.803,0.536 -1.514,1.136 -2.139,1.785"
       style="fill:#00a9a1;fill-opacity:1;fill-rule:nonzero;stroke:none"
       id="path142"
       inkscape:connector-curvature="0" /><path
       d="m 49.786,648.016 -2.646,-0.466 10e-4,-2.161 2.609,0.46 c -0.062,0.708 -0.05,1.435 0.036,2.167"
       style="fill:#00a9a1;fill-opacity:1;fill-rule:nonzero;stroke:none"
       id="path144"
       inkscape:connector-curvature="0" /><path
       d="m 50.269,643.446 -3.126,-0.551 0.002,-2.244 4.093,0.721 c -0.397,0.668 -0.719,1.363 -0.969,2.074"
       style="fill:#00a9a1;fill-opacity:1;fill-rule:nonzero;stroke:none"
       id="path146"
       inkscape:connector-curvature="0" /><path
       d="m 47.152,631.756 16.742,2.989 c -1.837,0.078 -3.494,0.371 -4.975,0.832 l -11.769,-2.075 0.002,-1.746"
       style="fill:#00a9a1;fill-opacity:1;fill-rule:nonzero;stroke:none"
       id="path148"
       inkscape:connector-curvature="0" /><path
       d="m 73.498,659.098 c -0.146,0.059 -0.294,0.115 -0.443,0.171 l -19.238,-3.392 c -0.102,-0.099 -0.201,-0.201 -0.3,-0.302 l 19.981,3.523"
       style="fill:#00a9a1;fill-opacity:1;fill-rule:nonzero;stroke:none"
       id="path150"
       inkscape:connector-curvature="0" /><path
       d="m 76.381,657.611 -24.699,-4.355 c -0.059,-0.094 -0.119,-0.187 -0.175,-0.281 l 25.174,4.44 c -0.099,0.066 -0.199,0.131 -0.3,0.196"
       style="fill:#00a9a1;fill-opacity:1;fill-rule:nonzero;stroke:none"
       id="path152"
       inkscape:connector-curvature="0" /><path
       d="m 64.736,652.893 c 0.648,0.119 1.169,0.182 1.849,0.33 l 12.514,2.207 c -0.071,0.071 -0.143,0.141 -0.216,0.211 l -28.485,-5.023 c -0.031,-0.088 -0.063,-0.177 -0.093,-0.265 l 12.883,2.271 c 0.45,0.034 0.99,0.167 1.548,0.269"
       style="fill:#00a9a1;fill-opacity:1;fill-rule:nonzero;stroke:none"
       id="path154"
       inkscape:connector-curvature="0" /><path
       d="m 70.828,651.727 9.869,1.74 c -0.049,0.075 -0.101,0.149 -0.152,0.223 l -9.981,-1.76 c 0.091,-0.065 0.178,-0.134 0.264,-0.203"
       style="fill:#00a9a1;fill-opacity:1;fill-rule:nonzero;stroke:none"
       id="path156"
       inkscape:connector-curvature="0" /><path
       d="M 60.321,650.124 49.82,648.272 c -0.012,-0.085 -0.024,-0.17 -0.034,-0.256 l 10.378,1.83 c 0.047,0.094 0.103,0.185 0.157,0.278"
       style="fill:#00a9a1;fill-opacity:1;fill-rule:nonzero;stroke:none"
       id="path158"
       inkscape:connector-curvature="0" /><path
       d="m 72.522,649.615 9.23,1.627 c -0.023,0.079 -0.047,0.158 -0.074,0.237 l -9.264,-1.634 c 0.04,-0.075 0.072,-0.153 0.108,-0.23"
       style="fill:#00a9a1;fill-opacity:1;fill-rule:nonzero;stroke:none"
       id="path160"
       inkscape:connector-curvature="0" /><path
       d="m 59.603,647.586 -9.853,-1.737 c 0.007,-0.082 0.016,-0.164 0.025,-0.245 l 9.83,1.733 c -0.005,0.081 -0.002,0.166 -0.002,0.249"
       style="fill:#00a9a1;fill-opacity:1;fill-rule:nonzero;stroke:none"
       id="path162"
       inkscape:connector-curvature="0" /><path
       d="m 60.091,645.445 -9.899,-1.763 c 0.025,-0.079 0.05,-0.157 0.077,-0.236 l 9.96,1.755 c -0.039,0.076 -0.101,0.167 -0.138,0.244"
       style="fill:#00a9a1;fill-opacity:1;fill-rule:nonzero;stroke:none"
       id="path164"
       inkscape:connector-curvature="0" /><path
       d="m 72.988,647.453 9.145,1.612 c -0.006,0.082 -0.013,0.164 -0.021,0.246 l -9.121,-1.609 c 0.002,-0.083 -0.001,-0.166 -0.003,-0.249"
       style="fill:#00a9a1;fill-opacity:1;fill-rule:nonzero;stroke:none"
       id="path166"
       inkscape:connector-curvature="0" /><path
       d="m 61.797,643.234 -10.559,-1.862 c 0.044,-0.075 0.092,-0.15 0.139,-0.224 l 10.659,1.879 c -0.082,0.067 -0.162,0.136 -0.239,0.207"
       style="fill:#00a9a1;fill-opacity:1;fill-rule:nonzero;stroke:none"
       id="path168"
       inkscape:connector-curvature="0" /><path
       d="m 72.196,644.819 9.851,1.737 c 0.012,0.085 0.023,0.17 0.033,0.255 l -9.717,-1.713 c -0.051,-0.095 -0.111,-0.187 -0.167,-0.279"
       style="fill:#00a9a1;fill-opacity:1;fill-rule:nonzero;stroke:none"
       id="path170"
       inkscape:connector-curvature="0" /><path
       d="m 81.574,644.477 -12.438,-2.193 c -0.563,-0.082 -1.111,-0.167 -1.661,-0.264 -0.635,-0.112 -1.098,-0.181 -1.636,-0.317 l -13.124,-2.315 c 0.066,-0.072 0.135,-0.142 0.203,-0.213 l 28.571,5.038 c 0.03,0.088 0.057,0.176 0.085,0.264"
       style="fill:#00a9a1;fill-opacity:1;fill-rule:nonzero;stroke:none"
       id="path172"
       inkscape:connector-curvature="0" /><path
       d="M 80.392,641.858 55.057,637.39 c 0.1,-0.066 0.204,-0.13 0.306,-0.195 l 24.855,4.383 c 0.059,0.093 0.118,0.186 0.174,0.28"
       style="fill:#00a9a1;fill-opacity:1;fill-rule:nonzero;stroke:none"
       id="path174"
       inkscape:connector-curvature="0" /><path
       d="m 58.424,635.74 c 0.163,-0.057 0.328,-0.111 0.495,-0.163 l 19.066,3.362 c 0.112,0.102 0.223,0.204 0.33,0.308 L 58.424,635.74"
       style="fill:#00a9a1;fill-opacity:1;fill-rule:nonzero;stroke:none"
       id="path176"
       inkscape:connector-curvature="0" /><path
       d="m 115.854,657.921 0.606,2.102 -5.822,-1.026 0.664,-1.878 4.552,0.802"
       style="fill:#00a9a1;fill-opacity:1;fill-rule:nonzero;stroke:none"
       id="path178"
       inkscape:connector-curvature="0" /><path
       d="m 112.933,652.501 0.719,-2.035 0.053,0.01 0.657,2.277 -1.429,-0.252"
       style="fill:#00a9a1;fill-opacity:1;fill-rule:nonzero;stroke:none"
       id="path180"
       inkscape:connector-curvature="0" /><path
       d="m 117.244,662.739 -7.463,-1.316 0.774,-2.192 5.981,1.055 0.708,2.453"
       style="fill:#00a9a1;fill-opacity:1;fill-rule:nonzero;stroke:none"
       id="path182"
       inkscape:connector-curvature="0" /><path
       d="m 115.778,657.658 -4.393,-0.774 0.719,-2.035 3.017,0.532 0.657,2.277"
       style="fill:#00a9a1;fill-opacity:1;fill-rule:nonzero;stroke:none"
       id="path184"
       inkscape:connector-curvature="0" /><path
       d="m 115.045,655.118 -2.859,-0.504 0.664,-1.878 1.588,0.28 0.607,2.102"
       style="fill:#00a9a1;fill-opacity:1;fill-rule:nonzero;stroke:none"
       id="path186"
       inkscape:connector-curvature="0" /><path
       d="m 128.46,653.078 4.961,0.875 -0.011,2.159 -5.594,-0.986 0.644,-2.048"
       style="fill:#00a9a1;fill-opacity:1;fill-rule:nonzero;stroke:none"
       id="path188"
       inkscape:connector-curvature="0" /><path
       d="m 127.742,655.362 5.666,0.999 -0.01,1.994 -6.251,-1.103 0.595,-1.89"
       style="fill:#00a9a1;fill-opacity:1;fill-rule:nonzero;stroke:none"
       id="path190"
       inkscape:connector-curvature="0" /><path
       d="m 129.13,650.951 4.303,0.759 -0.01,1.994 -4.888,-0.862 0.595,-1.891"
       style="fill:#00a9a1;fill-opacity:1;fill-rule:nonzero;stroke:none"
       id="path192"
       inkscape:connector-curvature="0" /><path
       d="m 129.873,648.588 3.574,0.631 -0.012,2.242 -4.231,-0.746 0.669,-2.127"
       style="fill:#00a9a1;fill-opacity:1;fill-rule:nonzero;stroke:none"
       id="path194"
       inkscape:connector-curvature="0" /><path
       d="m 130.542,646.462 2.917,0.514 -0.011,1.993 -3.501,-0.617 0.595,-1.89"
       style="fill:#00a9a1;fill-opacity:1;fill-rule:nonzero;stroke:none"
       id="path196"
       inkscape:connector-curvature="0" /><path
       d="m 131.261,644.178 2.211,0.39 -0.012,2.159 -2.843,-0.501 0.644,-2.048"
       style="fill:#00a9a1;fill-opacity:1;fill-rule:nonzero;stroke:none"
       id="path198"
       inkscape:connector-curvature="0" /><path
       d="m 127.073,657.489 6.323,1.115 -0.012,2.159 -6.956,-1.227 0.645,-2.047"
       style="fill:#00a9a1;fill-opacity:1;fill-rule:nonzero;stroke:none"
       id="path200"
       inkscape:connector-curvature="0" /><path
       d="m 131.93,642.051 1.554,0.274 -0.011,1.993 -2.138,-0.377 0.595,-1.89"
       style="fill:#00a9a1;fill-opacity:1;fill-rule:nonzero;stroke:none"
       id="path202"
       inkscape:connector-curvature="0" /><path
       d="m 133.359,665.58 -8.368,-1.475 0.694,-2.206 7.686,1.356 -0.012,2.325"
       style="fill:#00a9a1;fill-opacity:1;fill-rule:nonzero;stroke:none"
       id="path204"
       inkscape:connector-curvature="0" /><path
       d="m 132.649,639.767 0.848,0.15 -0.012,2.159 -1.48,-0.261 0.644,-2.048"
       style="fill:#00a9a1;fill-opacity:1;fill-rule:nonzero;stroke:none"
       id="path206"
       inkscape:connector-curvature="0" /><path
       d="m 126.354,659.773 7.029,1.239 -0.011,1.994 -7.613,-1.343 0.595,-1.89"
       style="fill:#00a9a1;fill-opacity:1;fill-rule:nonzero;stroke:none"
       id="path208"
       inkscape:connector-curvature="0" /><path
       d="m 106.677,635.187 5.481,0.967 -0.883,2.005 -4.012,-0.707 -0.586,-2.265"
       style="fill:#00a9a1;fill-opacity:1;fill-rule:nonzero;stroke:none"
       id="path210"
       inkscape:connector-curvature="0" /><path
       d="m 107.872,639.804 -0.541,-2.091 3.842,0.678 -0.815,1.851 -2.486,-0.438"
       style="fill:#00a9a1;fill-opacity:1;fill-rule:nonzero;stroke:none"
       id="path212"
       inkscape:connector-curvature="0" /><path
       d="m 109.373,642.479 -0.848,-0.149 -0.586,-2.265 2.317,0.409 -0.883,2.005"
       style="fill:#00a9a1;fill-opacity:1;fill-rule:nonzero;stroke:none"
       id="path214"
       inkscape:connector-curvature="0" /><path
       d="m 108.863,643.636 -0.27,-1.045 0.678,0.12 -0.408,0.925"
       style="fill:#00a9a1;fill-opacity:1;fill-rule:nonzero;stroke:none"
       id="path216"
       inkscape:connector-curvature="0" /><path
       d="m 118.737,641.72 -0.621,-2.105 3.826,0.675 -0.673,1.876 -2.532,-0.446"
       style="fill:#00a9a1;fill-opacity:1;fill-rule:nonzero;stroke:none"
       id="path218"
       inkscape:connector-curvature="0" /><path
       d="m 117.365,637.072 5.39,0.95 -0.729,2.033 -3.988,-0.703 -0.673,-2.28"
       style="fill:#00a9a1;fill-opacity:1;fill-rule:nonzero;stroke:none"
       id="path220"
       inkscape:connector-curvature="0" /><path
       d="m 119.952,645.841 -0.003,-0.016 -0.384,-1.299 0.807,0.142 -0.42,1.173"
       style="fill:#00a9a1;fill-opacity:1;fill-rule:nonzero;stroke:none"
       id="path222"
       inkscape:connector-curvature="0" /><path
       d="m 118.815,641.983 2.37,0.418 -0.729,2.033 -0.968,-0.171 -0.673,-2.28"
       style="fill:#00a9a1;fill-opacity:1;fill-rule:nonzero;stroke:none"
       id="path224"
       inkscape:connector-curvature="0" /><path
       d="m 98.944,647.623 -4.469,-0.788 -0.006,-1.996 3.985,0.703 0.49,2.081"
       style="fill:#00a9a1;fill-opacity:1;fill-rule:nonzero;stroke:none"
       id="path226"
       inkscape:connector-curvature="0" /><path
       d="m 98.393,645.282 -3.924,-0.692 -0.006,-2.246 3.38,0.596 0.55,2.342"
       style="fill:#00a9a1;fill-opacity:1;fill-rule:nonzero;stroke:none"
       id="path228"
       inkscape:connector-curvature="0" /><path
       d="m 97.231,640.338 -2.775,-0.489 -0.006,-2.163 2.251,0.397 0.53,2.255"
       style="fill:#00a9a1;fill-opacity:1;fill-rule:nonzero;stroke:none"
       id="path230"
       inkscape:connector-curvature="0" /><path
       d="m 94.438,633.029 1.122,0.198 0.53,2.255 -1.646,-0.291 -0.006,-2.162"
       style="fill:#00a9a1;fill-opacity:1;fill-rule:nonzero;stroke:none"
       id="path232"
       inkscape:connector-curvature="0" /><path
       d="m 97.782,642.68 -3.32,-0.585 -0.005,-1.996 2.835,0.499 0.49,2.082"
       style="fill:#00a9a1;fill-opacity:1;fill-rule:nonzero;stroke:none"
       id="path234"
       inkscape:connector-curvature="0" /><path
       d="m 96.64,637.823 -2.19,-0.386 -0.006,-1.996 1.707,0.301 0.489,2.081"
       style="fill:#00a9a1;fill-opacity:1;fill-rule:nonzero;stroke:none"
       id="path236"
       inkscape:connector-curvature="0" /><path
       d="m 101.859,660.026 -7.353,-1.297 -0.006,-2.329 6.788,1.197 0.571,2.429"
       style="fill:#00a9a1;fill-opacity:1;fill-rule:nonzero;stroke:none"
       id="path238"
       inkscape:connector-curvature="0" /><path
       d="m 99.535,650.138 -5.054,-0.891 -0.006,-2.162 4.53,0.799 0.53,2.254"
       style="fill:#00a9a1;fill-opacity:1;fill-rule:nonzero;stroke:none"
       id="path240"
       inkscape:connector-curvature="0" /><path
       d="m 101.227,657.337 -6.728,-1.186 -0.005,-1.996 6.243,1.101 0.49,2.081"
       style="fill:#00a9a1;fill-opacity:1;fill-rule:nonzero;stroke:none"
       id="path242"
       inkscape:connector-curvature="0" /><path
       d="m 100.085,652.48 -5.598,-0.987 -0.005,-1.996 5.114,0.902 0.489,2.081"
       style="fill:#00a9a1;fill-opacity:1;fill-rule:nonzero;stroke:none"
       id="path244"
       inkscape:connector-curvature="0" /><path
       d="m 100.676,654.995 -6.183,-1.09 -0.005,-2.162 5.658,0.997 0.53,2.255"
       style="fill:#00a9a1;fill-opacity:1;fill-rule:nonzero;stroke:none"
       id="path246"
       inkscape:connector-curvature="0" /><path
       d="m 125.759,661.663 -0.074,0.236 -9.149,-1.613 -0.076,-0.263 9.299,1.64"
       style="fill:#00a9a1;fill-opacity:1;fill-rule:nonzero;stroke:none"
       id="path248"
       inkscape:connector-curvature="0" /><path
       d="m 110.638,658.997 -0.083,0.234 -9.267,-1.634 -0.061,-0.26 9.411,1.66"
       style="fill:#00a9a1;fill-opacity:1;fill-rule:nonzero;stroke:none"
       id="path250"
       inkscape:connector-curvature="0" /><path
       d="m 111.302,657.119 -10.565,-1.863 -0.061,-0.261 10.709,1.889 -0.083,0.235"
       style="fill:#00a9a1;fill-opacity:1;fill-rule:nonzero;stroke:none"
       id="path252"
       inkscape:connector-curvature="0" /><path
       d="m 115.778,657.658 10.65,1.878 -0.074,0.237 -10.5,-1.852 -0.076,-0.263"
       style="fill:#00a9a1;fill-opacity:1;fill-rule:nonzero;stroke:none"
       id="path254"
       inkscape:connector-curvature="0" /><path
       d="m 112.104,654.849 -11.958,-2.109 -0.061,-0.26 12.101,2.134 -0.082,0.235"
       style="fill:#00a9a1;fill-opacity:1;fill-rule:nonzero;stroke:none"
       id="path256"
       inkscape:connector-curvature="0" /><path
       d="m 115.045,655.118 12.102,2.134 -0.074,0.237 -11.952,-2.108 -0.076,-0.263"
       style="fill:#00a9a1;fill-opacity:1;fill-rule:nonzero;stroke:none"
       id="path258"
       inkscape:connector-curvature="0" /><path
       d="m 112.85,652.736 -13.254,-2.337 -0.061,-0.261 13.398,2.363 -0.083,0.235"
       style="fill:#00a9a1;fill-opacity:1;fill-rule:nonzero;stroke:none"
       id="path260"
       inkscape:connector-curvature="0" /><path
       d="m 114.362,652.753 13.454,2.373 -0.074,0.236 -13.304,-2.346 -0.076,-0.263"
       style="fill:#00a9a1;fill-opacity:1;fill-rule:nonzero;stroke:none"
       id="path262"
       inkscape:connector-curvature="0" /><path
       d="m 128.46,653.078 -14.755,-2.602 -0.026,-0.088 -0.027,0.078 -14.647,-2.582 -0.061,-0.261 29.591,5.219 -0.075,0.236"
       style="fill:#00a9a1;fill-opacity:1;fill-rule:nonzero;stroke:none"
       id="path264"
       inkscape:connector-curvature="0" /><path
       d="m 129.13,650.951 -30.676,-5.409 -0.061,-0.26 30.811,5.433 -0.074,0.236"
       style="fill:#00a9a1;fill-opacity:1;fill-rule:nonzero;stroke:none"
       id="path266"
       inkscape:connector-curvature="0" /><path
       d="m 129.873,648.588 -32.03,-5.648 -0.061,-0.26 32.165,5.672 -0.074,0.236"
       style="fill:#00a9a1;fill-opacity:1;fill-rule:nonzero;stroke:none"
       id="path268"
       inkscape:connector-curvature="0" /><path
       d="m 120.456,644.434 10.161,1.792 -0.075,0.236 -10.17,-1.794 0.084,-0.234"
       style="fill:#00a9a1;fill-opacity:1;fill-rule:nonzero;stroke:none"
       id="path270"
       inkscape:connector-curvature="0" /><path
       d="m 108.593,642.591 -11.301,-1.993 -0.061,-0.26 11.294,1.992 0.068,0.261"
       style="fill:#00a9a1;fill-opacity:1;fill-rule:nonzero;stroke:none"
       id="path272"
       inkscape:connector-curvature="0" /><path
       d="m 119.488,644.263 0.077,0.263 -10.294,-1.815 0.102,-0.232 10.115,1.784"
       style="fill:#00a9a1;fill-opacity:1;fill-rule:nonzero;stroke:none"
       id="path274"
       inkscape:connector-curvature="0" /><path
       d="m 110.256,640.474 0.102,-0.232 8.379,1.478 0.078,0.263 -8.559,-1.509"
       style="fill:#00a9a1;fill-opacity:1;fill-rule:nonzero;stroke:none"
       id="path276"
       inkscape:connector-curvature="0" /><path
       d="m 121.269,642.166 10.066,1.775 -0.074,0.237 -10.076,-1.777 0.084,-0.235"
       style="fill:#00a9a1;fill-opacity:1;fill-rule:nonzero;stroke:none"
       id="path278"
       inkscape:connector-curvature="0" /><path
       d="m 107.939,640.065 -11.238,-1.982 -0.061,-0.26 11.232,1.981 0.067,0.261"
       style="fill:#00a9a1;fill-opacity:1;fill-rule:nonzero;stroke:none"
       id="path280"
       inkscape:connector-curvature="0" /><path
       d="m 121.942,640.29 0.084,-0.235 9.979,1.76 -0.075,0.236 -9.988,-1.761"
       style="fill:#00a9a1;fill-opacity:1;fill-rule:nonzero;stroke:none"
       id="path282"
       inkscape:connector-curvature="0" /><path
       d="m 96.151,635.742 -0.061,-0.26 11.173,1.97 0.068,0.261 -11.18,-1.971"
       style="fill:#00a9a1;fill-opacity:1;fill-rule:nonzero;stroke:none"
       id="path284"
       inkscape:connector-curvature="0" /><path
       d="m 111.173,638.391 0.102,-0.232 6.763,1.193 0.078,0.263 -6.943,-1.224"
       style="fill:#00a9a1;fill-opacity:1;fill-rule:nonzero;stroke:none"
       id="path286"
       inkscape:connector-curvature="0" /><path
       d="m 135.253,641.307 -0.262,-1.293 3.553,1.208 -3.291,0.085"
       style="fill:#00a9a1;fill-opacity:1;fill-rule:nonzero;stroke:none"
       id="path288"
       inkscape:connector-curvature="0" /><path
       d="m 119.765,656.72 -0.262,-1.293 3.553,1.208 -3.291,0.085"
       style="fill:#00a9a1;fill-opacity:1;fill-rule:nonzero;stroke:none"
       id="path290"
       inkscape:connector-curvature="0" /><path
       d="m 112.935,643.939 -0.262,-1.293 3.553,1.208 -3.291,0.085"
       style="fill:#00a9a1;fill-opacity:1;fill-rule:nonzero;stroke:none"
       id="path292"
       inkscape:connector-curvature="0" /><path
       d="m 177.66,650.198 4.213,0.743 -0.012,2.243 -4.195,-0.74 -0.006,-2.246"
       style="fill:#00a9a1;fill-opacity:1;fill-rule:nonzero;stroke:none"
       id="path294"
       inkscape:connector-curvature="0" /><path
       d="m 177.667,652.694 4.193,0.739 -0.011,1.993 -4.177,-0.736 -0.005,-1.996"
       style="fill:#00a9a1;fill-opacity:1;fill-rule:nonzero;stroke:none"
       id="path296"
       inkscape:connector-curvature="0" /><path
       d="m 177.655,647.953 4.23,0.746 -0.01,1.993 -4.215,-0.743 -0.005,-1.996"
       style="fill:#00a9a1;fill-opacity:1;fill-rule:nonzero;stroke:none"
       id="path298"
       inkscape:connector-curvature="0" /><path
       d="m 181.786,667.22 -18.462,-3.256 c 2.676,0.058 5.506,-0.227 8.012,-0.831 l 5.564,0.981 0.076,0.412 1.829,-0.076 2.993,0.527 -0.012,2.243"
       style="fill:#00a9a1;fill-opacity:1;fill-rule:nonzero;stroke:none"
       id="path300"
       inkscape:connector-curvature="0" /><path
       d="m 162.669,652.044 -7.546,-1.331 c -0.023,-0.546 0.045,-1.115 0.224,-1.706 0.024,-0.08 0.05,-0.158 0.076,-0.236 l 7.187,1.267 0.059,2.006"
       style="fill:#00a9a1;fill-opacity:1;fill-rule:nonzero;stroke:none"
       id="path302"
       inkscape:connector-curvature="0" /><path
       d="m 166.133,645.007 c 0.761,0.134 1.878,0.396 2.864,1.17 l -8.229,-1.451 c 1.437,-0.177 3.203,-0.101 5.365,0.281"
       style="fill:#00a9a1;fill-opacity:1;fill-rule:nonzero;stroke:none"
       id="path304"
       inkscape:connector-curvature="0" /><path
       d="m 155.138,650.965 7.538,1.33 0.015,0.501 14.983,2.642 -0.002,-0.499 4.176,0.736 -0.012,2.16 -20.351,-3.589 -2.906,-0.99 0.061,0.488 -2.666,-0.47 c -0.459,-0.704 -0.757,-1.476 -0.836,-2.309"
       style="fill:#00a9a1;fill-opacity:1;fill-rule:nonzero;stroke:none"
       id="path306"
       inkscape:connector-curvature="0" /><path
       d="m 169.464,646.591 0.01,1.914 -12.505,-2.205 c 0.753,-0.69 1.752,-1.192 3.063,-1.455 l 9.318,1.643 c 0.038,0.036 0.077,0.066 0.114,0.103"
       style="fill:#00a9a1;fill-opacity:1;fill-rule:nonzero;stroke:none"
       id="path308"
       inkscape:connector-curvature="0" /><path
       d="m 169.479,649.421 -6.923,-1.221 0.047,1.588 -7.096,-1.252 c 0.288,-0.771 0.693,-1.454 1.246,-2.025 l 12.723,2.244 0.003,0.666"
       style="fill:#00a9a1;fill-opacity:1;fill-rule:nonzero;stroke:none"
       id="path310"
       inkscape:connector-curvature="0" /><path
       d="m 177.649,645.541 4.249,0.749 -0.011,2.16 -4.233,-0.747 -0.005,-2.162"
       style="fill:#00a9a1;fill-opacity:1;fill-rule:nonzero;stroke:none"
       id="path312"
       inkscape:connector-curvature="0" /><path
       d="m 163.239,657.465 c -1.085,-0.191 -3.028,-0.809 -3.998,-1.37 l 8.704,1.535 c -1.265,0.16 -3.522,0.044 -4.706,-0.165"
       style="fill:#00a9a1;fill-opacity:1;fill-rule:nonzero;stroke:none"
       id="path314"
       inkscape:connector-curvature="0" /><path
       d="m 177.643,643.295 4.267,0.753 -0.01,1.993 -4.252,-0.75 -0.005,-1.996"
       style="fill:#00a9a1;fill-opacity:1;fill-rule:nonzero;stroke:none"
       id="path316"
       inkscape:connector-curvature="0" /><path
       d="m 170.098,657.095 c -0.631,0.265 -1.368,0.437 -2.153,0.535 l -8.704,-1.535 c -1.245,-0.664 -2.327,-1.522 -3.071,-2.537 l 2.528,0.446 0.117,0.415 2.007,-0.04 21.013,3.705 -0.011,1.993 -9.348,-1.648 -2.378,-1.334"
       style="fill:#00a9a1;fill-opacity:1;fill-rule:nonzero;stroke:none"
       id="path318"
       inkscape:connector-curvature="0" /><path
       d="m 171.72,639.757 10.204,1.799 -0.012,2.243 -4.741,-0.836 c -2.248,-1.583 -3.904,-2.553 -5.451,-3.206"
       style="fill:#00a9a1;fill-opacity:1;fill-rule:nonzero;stroke:none"
       id="path320"
       inkscape:connector-curvature="0" /><path
       d="m 175.536,661.629 6.274,1.106 -0.011,1.993 -1.823,-0.321 -3.215,-1.087 0.051,0.529 -4.894,-0.863 c 1.341,-0.358 2.574,-0.81 3.618,-1.357"
       style="fill:#00a9a1;fill-opacity:1;fill-rule:nonzero;stroke:none"
       id="path322"
       inkscape:connector-curvature="0" /><path
       d="m 176.799,660.854 -3.675,-2.061 8.699,1.533 -0.012,2.16 -5.937,-1.047 c 0.328,-0.186 0.642,-0.379 0.925,-0.585"
       style="fill:#00a9a1;fill-opacity:1;fill-rule:nonzero;stroke:none"
       id="path324"
       inkscape:connector-curvature="0" /><path
       d="m 147.691,656.469 -4.77,-0.841 -0.006,-2.163 3.471,0.612 c 0.34,0.786 0.771,1.593 1.305,2.392"
       style="fill:#00a9a1;fill-opacity:1;fill-rule:nonzero;stroke:none"
       id="path326"
       inkscape:connector-curvature="0" /><path
       d="m 145.663,646.801 -2.767,-0.488 -0.006,-2.246 3.419,0.603 c -0.261,0.66 -0.48,1.367 -0.646,2.131"
       style="fill:#00a9a1;fill-opacity:1;fill-rule:nonzero;stroke:none"
       id="path328"
       inkscape:connector-curvature="0" /><path
       d="m 146.404,644.437 -3.515,-0.62 -0.005,-1.996 4.493,0.793 c -0.37,0.556 -0.695,1.164 -0.973,1.823"
       style="fill:#00a9a1;fill-opacity:1;fill-rule:nonzero;stroke:none"
       id="path330"
       inkscape:connector-curvature="0" /><path
       d="m 145.339,648.988 -2.437,-0.43 -0.005,-1.996 2.72,0.48 c -0.124,0.616 -0.219,1.262 -0.278,1.946"
       style="fill:#00a9a1;fill-opacity:1;fill-rule:nonzero;stroke:none"
       id="path332"
       inkscape:connector-curvature="0" /><path
       d="m 145.537,651.434 -2.629,-0.464 -0.005,-2.162 2.422,0.427 c -0.025,0.612 0.039,1.363 0.212,2.199"
       style="fill:#00a9a1;fill-opacity:1;fill-rule:nonzero;stroke:none"
       id="path334"
       inkscape:connector-curvature="0" /><path
       d="m 146.271,653.808 -3.357,-0.592 -0.005,-1.996 2.685,0.473 c 0.154,0.666 0.375,1.378 0.677,2.115"
       style="fill:#00a9a1;fill-opacity:1;fill-rule:nonzero;stroke:none"
       id="path336"
       inkscape:connector-curvature="0" /><path
       d="m 147.531,642.391 -4.648,-0.819 -0.005,-2.163 6.346,1.119 c -0.634,0.54 -1.199,1.161 -1.693,1.863"
       style="fill:#00a9a1;fill-opacity:1;fill-rule:nonzero;stroke:none"
       id="path338"
       inkscape:connector-curvature="0" /><path
       d="m 149.477,640.324 -6.6,-1.164 -0.005,-1.996 9.204,1.623 c -0.952,0.405 -1.821,0.916 -2.599,1.537"
       style="fill:#00a9a1;fill-opacity:1;fill-rule:nonzero;stroke:none"
       id="path340"
       inkscape:connector-curvature="0" /><path
       d="m 155.68,662.617 -12.747,-2.248 -0.006,-2.246 7.338,1.294 c 1.422,1.264 3.203,2.385 5.415,3.2"
       style="fill:#00a9a1;fill-opacity:1;fill-rule:nonzero;stroke:none"
       id="path342"
       inkscape:connector-curvature="0" /><path
       d="m 142.865,634.668 16.214,2.86 c -2.433,0.006 -4.654,0.349 -6.571,1.086 l -9.637,-1.7 -0.006,-2.246"
       style="fill:#00a9a1;fill-opacity:1;fill-rule:nonzero;stroke:none"
       id="path344"
       inkscape:connector-curvature="0" /><path
       d="m 149.924,659.107 -6.997,-1.234 -0.006,-1.996 4.963,0.875 c 0.567,0.809 1.243,1.604 2.04,2.355"
       style="fill:#00a9a1;fill-opacity:1;fill-rule:nonzero;stroke:none"
       id="path346"
       inkscape:connector-curvature="0" /><path
       d="m 171.918,662.986 c -0.192,0.051 -0.386,0.099 -0.582,0.147 l -21.071,-3.716 c -0.116,-0.103 -0.231,-0.205 -0.341,-0.31 l 21.994,3.879"
       style="fill:#00a9a1;fill-opacity:1;fill-rule:nonzero;stroke:none"
       id="path348"
       inkscape:connector-curvature="0" /><path
       d="m 175.536,661.629 -27.652,-4.877 c -0.066,-0.094 -0.129,-0.188 -0.193,-0.283 l 28.183,4.97 c -0.112,0.064 -0.221,0.129 -0.338,0.19"
       style="fill:#00a9a1;fill-opacity:1;fill-rule:nonzero;stroke:none"
       id="path350"
       inkscape:connector-curvature="0" /><path
       d="m 160.04,656.485 -13.654,-2.408 c -0.039,-0.09 -0.079,-0.18 -0.115,-0.269 l 12.97,2.287 c 0.26,0.139 0.526,0.269 0.799,0.39"
       style="fill:#00a9a1;fill-opacity:1;fill-rule:nonzero;stroke:none"
       id="path352"
       inkscape:connector-curvature="0" /><path
       d="m 167.945,657.63 4.531,0.799 0.648,0.364 -6.13,-1.081 c 0.322,-0.017 0.64,-0.044 0.951,-0.082"
       style="fill:#00a9a1;fill-opacity:1;fill-rule:nonzero;stroke:none"
       id="path354"
       inkscape:connector-curvature="0" /><path
       d="m 156.17,653.558 -10.576,-1.865 c -0.02,-0.087 -0.039,-0.173 -0.057,-0.259 l 10.437,1.84 c 0.062,0.096 0.128,0.191 0.196,0.284"
       style="fill:#00a9a1;fill-opacity:1;fill-rule:nonzero;stroke:none"
       id="path356"
       inkscape:connector-curvature="0" /><path
       d="m 177.672,654.69 0,0.249 -14.996,-2.644 -0.007,-0.251 15.003,2.646"
       style="fill:#00a9a1;fill-opacity:1;fill-rule:nonzero;stroke:none"
       id="path358"
       inkscape:connector-curvature="0" /><path
       d="m 155.138,650.965 -9.813,-1.73 c 0.004,-0.084 0.007,-0.168 0.014,-0.247 l 9.784,1.725 c 0.004,0.085 0.007,0.169 0.015,0.252"
       style="fill:#00a9a1;fill-opacity:1;fill-rule:nonzero;stroke:none"
       id="path360"
       inkscape:connector-curvature="0" /><path
       d="m 155.423,648.771 -9.806,-1.729 c 0.016,-0.08 0.029,-0.163 0.046,-0.241 l 9.844,1.735 c -0.029,0.078 -0.057,0.156 -0.084,0.235"
       style="fill:#00a9a1;fill-opacity:1;fill-rule:nonzero;stroke:none"
       id="path362"
       inkscape:connector-curvature="0" /><path
       d="m 162.603,649.788 15.063,2.656 0.001,0.25 -15.057,-2.656 -0.007,-0.25"
       style="fill:#00a9a1;fill-opacity:1;fill-rule:nonzero;stroke:none"
       id="path364"
       inkscape:connector-curvature="0" /><path
       d="m 156.753,646.511 -10.444,-1.841 c 0.032,-0.078 0.063,-0.156 0.095,-0.233 l 10.565,1.863 c -0.074,0.069 -0.146,0.139 -0.216,0.211"
       style="fill:#00a9a1;fill-opacity:1;fill-rule:nonzero;stroke:none"
       id="path366"
       inkscape:connector-curvature="0" /><path
       d="m 169.474,648.505 8.186,1.444 0,0.249 -8.184,-1.443 -0.002,-0.25"
       style="fill:#00a9a1;fill-opacity:1;fill-rule:nonzero;stroke:none"
       id="path368"
       inkscape:connector-curvature="0" /><path
       d="m 168.997,646.177 8.657,1.526 0.001,0.25 -8.305,-1.465 c -0.116,-0.111 -0.233,-0.217 -0.353,-0.311"
       style="fill:#00a9a1;fill-opacity:1;fill-rule:nonzero;stroke:none"
       id="path370"
       inkscape:connector-curvature="0" /><path
       d="m 160.032,644.845 -12.655,-2.231 c 0.05,-0.076 0.102,-0.149 0.154,-0.223 l 13.237,2.335 c -0.256,0.031 -0.501,0.072 -0.736,0.119"
       style="fill:#00a9a1;fill-opacity:1;fill-rule:nonzero;stroke:none"
       id="path372"
       inkscape:connector-curvature="0" /><path
       d="m 177.649,645.541 -28.425,-5.013 c 0.082,-0.07 0.168,-0.137 0.253,-0.204 l 28.171,4.967 0.001,0.25"
       style="fill:#00a9a1;fill-opacity:1;fill-rule:nonzero;stroke:none"
       id="path374"
       inkscape:connector-curvature="0" /><path
       d="m 152.076,638.787 c 0.142,-0.061 0.287,-0.118 0.432,-0.173 l 24.663,4.349 c 0.157,0.11 0.309,0.215 0.472,0.332 l -25.567,-4.508"
       style="fill:#00a9a1;fill-opacity:1;fill-rule:nonzero;stroke:none"
       id="path376"
       inkscape:connector-curvature="0" /><path
       d="m 170.479,661.236 -0.262,-1.293 3.553,1.208 -3.291,0.085"
       style="fill:#00a9a1;fill-opacity:1;fill-rule:nonzero;stroke:none"
       id="path378"
       inkscape:connector-curvature="0" /><path
       d="m 142.905,653.56 -1.843,0.036 -0.262,-1.293 2.098,0.663 0.007,0.594"
       style="fill:#00a9a1;fill-opacity:1;fill-rule:nonzero;stroke:none"
       id="path380"
       inkscape:connector-curvature="0" /><path
       d="m 156.707,640.185 -0.262,-1.293 3.553,1.209 -3.291,0.084"
       style="fill:#00a9a1;fill-opacity:1;fill-rule:nonzero;stroke:none"
       id="path382"
       inkscape:connector-curvature="0" /><path
       d="m 86.794,657.598 -0.262,-1.293 3.553,1.208 -3.291,0.085"
       style="fill:#00a9a1;fill-opacity:1;fill-rule:nonzero;stroke:none"
       id="path384"
       inkscape:connector-curvature="0" /><path
       d="m 74.217,646.006 -0.262,-1.293 3.553,1.209 -3.291,0.084"
       style="fill:#00a9a1;fill-opacity:1;fill-rule:nonzero;stroke:none"
       id="path386"
       inkscape:connector-curvature="0" /><g
       id="g388"><g
         id="g390"
         clip-path="url(#clipPath392)"><path
           d="m 56.437,654.51 -0.262,-1.294 3.553,1.209 -3.291,0.085"
           style="fill:#00a9a1;fill-opacity:1;fill-rule:nonzero;stroke:none"
           id="path396"
           inkscape:connector-curvature="0" /><path
           d="m 190.064,666.754 c 0.406,-0.312 0.609,-0.689 0.609,-1.131 0,-0.446 -0.203,-0.826 -0.609,-1.139 -0.407,-0.314 -0.901,-0.471 -1.482,-0.471 -0.581,0 -1.075,0.157 -1.481,0.471 -0.404,0.313 -0.607,0.693 -0.607,1.139 0,0.442 0.204,0.819 0.61,1.131 0.409,0.314 0.902,0.471 1.478,0.471 0.579,0 1.073,-0.157 1.482,-0.471 z m 0.241,0.18 c -0.475,0.361 -1.049,0.542 -1.723,0.542 -0.669,0 -1.24,-0.181 -1.713,-0.542 -0.475,-0.363 -0.713,-0.8 -0.713,-1.311 0,-0.517 0.236,-0.956 0.706,-1.319 0.473,-0.365 1.046,-0.547 1.72,-0.547 0.674,0 1.248,0.182 1.723,0.547 0.475,0.364 0.713,0.804 0.713,1.319 0,0.513 -0.238,0.95 -0.713,1.311 z m -1.362,-1.225 c -0.099,-0.031 -0.248,-0.046 -0.447,-0.046 l -0.424,0 0,0.739 0.401,0 c 0.26,0 0.45,-0.025 0.568,-0.076 0.118,-0.05 0.177,-0.15 0.177,-0.298 0,-0.157 -0.091,-0.264 -0.275,-0.319 z m -1.342,-1.101 0.471,0 0,0.805 0.371,0 c 0.25,0 0.424,-0.022 0.524,-0.066 0.167,-0.076 0.251,-0.232 0.251,-0.469 l 0,-0.162 0.01,-0.065 c 0.002,-0.009 0.005,-0.016 0.007,-0.023 0.002,-0.007 0.004,-0.014 0.007,-0.02 l 0.44,0 -0.016,0.025 c -0.011,0.017 -0.019,0.052 -0.023,0.106 -0.005,0.054 -0.007,0.105 -0.007,0.152 l 0,0.149 c 0,0.103 -0.049,0.209 -0.146,0.317 -0.097,0.108 -0.251,0.174 -0.46,0.2 0.165,0.02 0.295,0.053 0.387,0.099 0.175,0.086 0.262,0.22 0.262,0.402 0,0.257 -0.138,0.429 -0.414,0.516 -0.155,0.049 -0.398,0.074 -0.729,0.074 l -0.935,0 0,-2.04"
           style="fill:#00a9a1;fill-opacity:1;fill-rule:nonzero;stroke:none"
           id="path398"
           inkscape:connector-curvature="0" /></g></g></g></svg>